<svg xmlns="http://www.w3.org/2000/svg" style="display: none">
	<symbol id="icon-logo" viewBox="0 0 53 20">
		<path fill-rule="evenodd" clip-rule="evenodd" d="M19.3749 7.82301V16.9956C19.4682 17.8168 20.2483 19.4591 22.6222 19.4591H26.0375V17.6115H22.6222C22.137 17.6115 21.1665 17.3428 21.1665 16.2678V7.82301H25.1975V5.80742H21.1665V2.4386H19.3749V5.80742H16.9111V7.82301H19.3749Z" fill="black" />
		<path fill-rule="evenodd" clip-rule="evenodd" d="M46.3378 7.82301V16.9956C46.4311 17.8168 47.2112 19.4591 49.5851 19.4591H53.0004V17.6115H49.5851C49.0999 17.6115 48.1294 17.3428 48.1294 16.2678V7.82301H52.1603V5.80742H48.1294V2.4386H46.3378V5.80742H43.874V7.82301H46.3378Z" fill="black" />
		<path fill-rule="evenodd" clip-rule="evenodd" d="M0 0H2.28312L7.5579 9.21119L12.9364 0H15.2733L8.58137 11.4943H6.29825L0 0ZM8.5826 11.4943H6.30332V19.4591H8.5826V11.4943Z" fill="#38BFF2" />
		<path fill-rule="evenodd" clip-rule="evenodd" d="M26.9629 0H29.246L34.5208 9.21119L39.8993 0H42.2362L35.5443 11.4943H33.2611L26.9629 0ZM35.5455 11.4943H33.2662V19.4591H35.5455V11.4943Z" fill="#F15525" />
	</symbol>
	<symbol id="icon-arrow" viewBox="0 0 10 9">
		<path d="M4.77588 0.429688L8.71157 4.36551L4.77588 8.30132" />
		<path d="M8.73218 4.36731H0.151367" />
	</symbol>
	<symbol id="diagonal-icon-arrow" viewBox="0 0 16 16">
		<path d="M0.279356 14.3067C-0.103546 14.7047 -0.0913058 15.3377 0.306695 15.7206C0.704696 16.1035 1.33774 16.0913 1.72064 15.6933L0.279356 14.3067ZM15.4687 0.980642C15.458 0.428461 15.0018 -0.0105157 14.4496 0.000160698L5.45125 0.174148C4.89907 0.184824 4.4601 0.641111 4.47077 1.19329C4.48145 1.74547 4.93774 2.18445 5.48992 2.17377L13.4884 2.01912L13.6431 10.0176C13.6538 10.5698 14.11 11.0088 14.6622 10.9981C15.2144 10.9874 15.6534 10.5311 15.6427 9.97896L15.4687 0.980642ZM1.72064 15.6933L15.1895 1.69328L13.7483 0.306669L0.279356 14.3067L1.72064 15.6933Z" />
	</symbol>
	<symbol id="icon-instagram" viewBox="0 0 19 19">
		<path d="M13.4011 0.686356H5.21241C2.54732 0.686356 0.37915 2.8545 0.37915 5.51959V13.7084C0.37915 16.3735 2.54732 18.5417 5.21241 18.5417H13.4013C16.0661 18.5417 18.2343 16.3735 18.2343 13.7084V5.51959C18.2343 2.8545 16.0661 0.686356 13.4011 0.686356ZM9.30676 14.4961C6.6147 14.4961 4.42463 12.306 4.42463 9.61397C4.42463 6.92189 6.6147 4.73181 9.30676 4.73181C11.9988 4.73181 14.189 6.92189 14.189 9.61397C14.189 12.306 11.9988 14.4961 9.30676 14.4961ZM14.3057 5.88319C13.5101 5.88319 12.863 5.23611 12.863 4.44057C12.863 3.64502 13.5101 2.9978 14.3057 2.9978C15.1012 2.9978 15.7483 3.64502 15.7483 4.44057C15.7483 5.23611 15.1012 5.88319 14.3057 5.88319Z" />
		<path d="M9.30683 5.77873C7.19207 5.77873 5.47144 7.49924 5.47144 9.61413C5.47144 11.7289 7.19207 13.4496 9.30683 13.4496C11.4217 13.4496 13.1421 11.7289 13.1421 9.61413C13.1421 7.49924 11.4217 5.77873 9.30683 5.77873Z" />
		<path d="M14.3058 4.04461C14.0875 4.04461 13.9099 4.22224 13.9099 4.44047C13.9099 4.65872 14.0875 4.83635 14.3058 4.83635C14.524 4.83635 14.7018 4.65884 14.7018 4.44047C14.7018 4.2221 14.524 4.04461 14.3058 4.04461Z" />
	</symbol>
	<symbol id="icon-vk" viewBox="0 0 20 11">
		<path fill-rule="evenodd" clip-rule="evenodd" d="M9.84959 10.9578H10.9649C10.9649 10.9578 11.3018 10.921 11.4738 10.7359C11.6322 10.5662 11.6271 10.2473 11.6271 10.2473C11.6271 10.2473 11.6053 8.7548 12.2999 8.53495C12.9846 8.31851 13.8639 9.97759 14.7959 10.6154C15.5005 11.0982 16.036 10.9924 16.036 10.9924L18.528 10.9578C18.528 10.9578 19.8314 10.8777 19.2133 9.85549C19.1628 9.77182 18.8535 9.09937 17.3607 7.71741C15.7982 6.27105 16.0074 6.50499 17.8896 4.00309C19.0359 2.4794 19.4941 1.54917 19.3509 1.15075C19.2143 0.771283 18.3713 0.871596 18.3713 0.871596L15.5657 0.889015C15.5657 0.889015 15.3577 0.860735 15.2034 0.95268C15.0527 1.04288 14.9556 1.25308 14.9556 1.25308C14.9556 1.25308 14.5116 2.43215 13.9193 3.43488C12.67 5.55075 12.1705 5.66243 11.9663 5.53106C11.4913 5.22485 11.6099 4.30095 11.6099 3.64458C11.6099 1.59415 11.9217 0.7392 11.0027 0.517895C10.6977 0.444375 10.4733 0.395878 9.69327 0.388033C8.69217 0.377674 7.84483 0.39107 7.36505 0.62551C7.04589 0.781401 6.79966 1.12879 6.94962 1.14874C7.13505 1.1735 7.55503 1.26167 7.77771 1.56407C8.06523 1.95416 8.05509 2.83033 8.05509 2.83033C8.05509 2.83033 8.22026 5.24406 7.66929 5.54394C7.29109 5.74959 6.7723 5.32971 5.65846 3.41014C5.08776 2.42684 4.65685 1.33999 4.65685 1.33999C4.65685 1.33999 4.57378 1.13687 4.42557 1.02823C4.24572 0.896599 3.99443 0.854659 3.99443 0.854659L1.32829 0.872099C1.32829 0.872099 0.928045 0.883222 0.781126 1.05677C0.650419 1.21114 0.770746 1.53048 0.770746 1.53048C0.770746 1.53048 2.85805 6.40089 5.2215 8.85538C7.38862 11.1056 9.84959 10.9578 9.84959 10.9578Z" />
	</symbol>
	<symbol id="icon-facebook" viewBox="0 0 9 17">
		<path d="M6.21977 3.91325H8.24571V0.973389H5.86414V0.983989C2.97835 1.0844 2.38689 2.67783 2.33477 4.35141H2.32882V5.81944H0.36377V8.69845H2.32882V16.4158H5.29028V8.69845H7.71628L8.18476 5.81944H5.29125V4.93249C5.29125 4.3669 5.6744 3.91325 6.21977 3.91325Z" />
	</symbol>
	<symbol id="icon-youtube" viewBox="0 0 21 15">
		<path d="M19.4733 1.66991C18.7638 0.826545 17.4539 0.482536 14.9523 0.482536H5.87188C3.31311 0.482536 1.98107 0.848732 1.27429 1.74661C0.585205 2.62205 0.585205 3.91192 0.585205 5.69714V9.09976C0.585205 12.5584 1.4028 14.3143 5.87188 14.3143H14.9523C17.1217 14.3143 18.3238 14.0108 19.1015 13.2665C19.899 12.5032 20.2393 11.2571 20.2393 9.09976V5.69714C20.2393 3.81448 20.1859 2.51699 19.4733 1.66991ZM13.2031 7.86821L9.07974 10.0232C8.98756 10.0714 8.88675 10.0953 8.78606 10.0953C8.67208 10.0953 8.55834 10.0647 8.45759 10.0036C8.2679 9.8887 8.15206 9.68311 8.15206 9.46132V5.16508C8.15206 4.94369 8.26759 4.73828 8.4569 4.62328C8.64628 4.50825 8.8818 4.5004 9.07828 4.60247L13.2017 6.74362C13.4115 6.85254 13.5432 7.06912 13.5436 7.3054C13.5438 7.5419 13.4127 7.75878 13.2031 7.86821Z" />
	</symbol>
	<symbol id="icon-practice-window" viewBox="0 0 58 58">
		<g clip-path="url(#clip0_23_2)">
			<path d="M57.103 11.7017V54.4721C57.103 55.9311 55.9251 57.1031 54.4662 57.1031H3.53382C2.07487 57.1031 0.896973 55.9311 0.896973 54.4721V11.7017H57.103Z" fill="white" />
			<path d="M57.103 3.53382V11.7016H0.896973V3.53382C0.896973 2.07487 2.07487 0.896973 3.53382 0.896973H54.4662C55.9251 0.896973 57.103 2.07487 57.103 3.53382Z" fill="#38BFF2" />
			<path d="M8.11732 6.29652C8.11732 7.05765 7.4996 7.67549 6.73835 7.67549C5.9771 7.67549 5.35938 7.05777 5.35938 6.29652C5.35938 5.53527 5.9771 4.9231 6.73835 4.9231C7.4996 4.9231 8.11732 5.53538 8.11732 6.29652Z" fill="#D7E9FF" />
			<path d="M13.9479 6.29652C13.9479 7.05765 13.3302 7.67549 12.5689 7.67549C11.8077 7.67549 11.1899 7.05777 11.1899 6.29652C11.1899 5.53527 11.8077 4.9231 12.5689 4.9231C13.3302 4.9231 13.9479 5.53538 13.9479 6.29652Z" fill="#D7E9FF" />
			<path d="M19.7789 6.29652C19.7789 7.05765 19.1612 7.67549 18.4 7.67549C17.6387 7.67549 17.021 7.05777 17.021 6.29652C17.021 5.53527 17.6387 4.9231 18.4 4.9231C19.1612 4.9231 19.7789 5.53538 19.7789 6.29652Z" fill="#D7E9FF" />
			<path d="M52.6399 6.29561C52.6399 7.0572 52.0174 7.67232 51.2559 7.67232H36.6614C35.8998 7.67232 35.2847 7.0572 35.2847 6.29561C35.2847 5.53402 35.8998 4.92627 36.6614 4.92627H51.256C52.0174 4.92627 52.6399 5.53402 52.6399 6.29561Z" fill="#D7E9FF" />
			<path d="M54.466 0.29895H3.5338C1.74996 0.29895 0.298828 1.74997 0.298828 3.53392V54.4722C0.298828 56.2525 1.74985 57.7011 3.5338 57.7011H54.466C56.2498 57.7011 57.7009 56.2526 57.7009 54.4722C57.7009 48.0722 57.7009 11.1231 57.7009 3.53392C57.7009 1.74997 56.2499 0.29895 54.466 0.29895ZM1.49474 3.53392C1.49474 2.40961 2.40971 1.49486 3.5338 1.49486H54.466C55.5901 1.49486 56.505 2.40961 56.505 3.53392V11.1036H1.49474V3.53392ZM56.505 54.4722C56.505 55.593 55.5901 56.5051 54.466 56.5051H3.5338C2.40971 56.5051 1.49474 55.593 1.49474 54.4722V12.2995H56.505V54.4722Z" fill="#1A2E35" />
			<path d="M8.09536 35.0121C9.25558 35.0121 10.1992 35.9455 10.1992 37.0926V42.3091C10.1992 44.1283 11.6689 45.6085 13.4751 45.6085C13.8056 45.6085 14.073 45.3409 14.073 45.0106C14.073 44.6804 13.8055 44.4127 13.4751 44.4127C12.3282 44.4127 11.3951 43.4691 11.3951 42.3091V37.0926C11.3951 35.9776 10.8311 34.9908 9.97152 34.3987C10.8176 33.7978 11.3718 32.8139 11.3718 31.7127V26.4958C11.3718 25.3358 12.3049 24.3922 13.4523 24.3922C13.7829 24.3922 14.0502 24.1245 14.0502 23.7943C14.0502 23.4641 13.7828 23.1964 13.4523 23.1964C11.6457 23.1964 10.1759 24.6767 10.1759 26.4958V31.7127C10.1759 32.8542 9.23814 33.7978 8.08607 33.8163C7.30035 33.8288 7.31111 35.0121 8.09536 35.0121Z" fill="#1A2E35" />
			<path d="M46.6046 37.0926V42.3091C46.6046 43.4691 45.6715 44.4127 44.5247 44.4127C44.1941 44.4127 43.9268 44.6804 43.9268 45.0106C43.9268 45.3408 44.1942 45.6085 44.5247 45.6085C46.3307 45.6085 47.8005 44.1283 47.8005 42.3091V37.0926C47.8005 35.9455 48.7441 35.0121 49.9044 35.0121C50.6895 35.0121 50.6984 33.8288 49.9137 33.8162C48.7616 33.7978 47.8239 32.8542 47.8239 31.7125V26.4957C47.8239 24.6765 46.3541 23.1963 44.5474 23.1963C44.2169 23.1963 43.9495 23.464 43.9495 23.7942C43.9495 24.1244 44.217 24.3921 44.5474 24.3921C45.6948 24.3921 46.6279 25.3357 46.6279 26.4957V31.7125C46.6279 32.8139 47.1821 33.7977 48.0282 34.3986C47.1687 34.9908 46.6046 35.9776 46.6046 37.0926Z" fill="#1A2E35" />
			<path d="M24.9856 44.7976C25.2936 44.9172 25.6396 44.7634 25.7587 44.4554L33.3567 24.7807C33.4759 24.4727 33.3223 24.1264 33.0145 24.0075C32.708 23.8887 32.3605 24.042 32.2414 24.3498L24.6434 44.0244C24.5243 44.3325 24.6778 44.6788 24.9856 44.7976Z" fill="#1A2E35" />
			<path d="M40.9984 34.4116L34.1052 39.0701C33.8313 39.2552 33.7595 39.6269 33.9446 39.9005C34.1301 40.1759 34.5033 40.2446 34.7744 40.0611L42.3993 34.908C42.7519 34.6697 42.7479 34.1538 42.4004 33.9177L34.7755 28.7447C34.5034 28.5596 34.1309 28.6305 33.9452 28.9038C33.7595 29.1771 33.8308 29.5491 34.104 29.7344L40.9984 34.4116Z" fill="#1A2E35" />
			<path d="M15.598 34.9064L23.1511 40.0595C23.4227 40.2455 23.796 40.1753 23.982 39.9024C24.1682 39.6297 24.0976 39.2577 23.8249 39.0715L16.9947 34.4114L23.826 29.7327C24.0981 29.5461 24.1675 29.1739 23.9813 28.9014C23.7945 28.629 23.4236 28.5596 23.1498 28.7458L15.5968 33.9188C15.4339 34.0304 15.3369 34.2155 15.3369 34.4128C15.3369 34.6101 15.4351 34.7951 15.598 34.9064Z" fill="#1A2E35" />
			<path d="M6.73825 4.32507C5.6486 4.32507 4.76172 5.20946 4.76172 6.29639C4.76172 7.38661 5.64871 8.27326 6.73825 8.27326C7.82847 8.27326 8.71546 7.38661 8.71546 6.29639C8.71535 5.20946 7.82836 4.32507 6.73825 4.32507ZM6.73825 7.07747C6.30789 7.07747 5.95752 6.72709 5.95752 6.29651C5.95752 5.86876 6.30789 5.5211 6.73825 5.5211C7.16917 5.5211 7.51955 5.86887 7.51955 6.29651C7.51944 6.72709 7.16917 7.07747 6.73825 7.07747Z" fill="#1A2E35" />
			<path d="M12.5695 4.32507C11.4793 4.32507 10.5923 5.20946 10.5923 6.29639C10.5923 7.38661 11.4793 8.27326 12.5695 8.27326C13.6591 8.27326 14.546 7.38661 14.546 6.29639C14.546 5.20946 13.659 4.32507 12.5695 4.32507ZM12.5695 7.07747C12.1386 7.07747 11.7882 6.72709 11.7882 6.29651C11.7882 5.86876 12.1386 5.5211 12.5695 5.5211C12.9999 5.5211 13.3502 5.86887 13.3502 6.29651C13.3502 6.72709 12.9999 7.07747 12.5695 7.07747Z" fill="#1A2E35" />
			<path d="M18.4001 4.32507C17.3098 4.32507 16.4229 5.20946 16.4229 6.29639C16.4229 7.38661 17.3098 8.27326 18.4001 8.27326C19.4897 8.27326 20.3766 7.38661 20.3766 6.29639C20.3766 5.20946 19.4896 4.32507 18.4001 4.32507ZM18.4001 7.07747C17.9691 7.07747 17.6188 6.72709 17.6188 6.29651C17.6188 5.86876 17.9691 5.5211 18.4001 5.5211C18.8304 5.5211 19.1808 5.86887 19.1808 6.29651C19.1808 6.72709 18.8304 7.07747 18.4001 7.07747Z" fill="#1A2E35" />
			<path d="M51.2559 4.32837H36.6614C35.5724 4.32837 34.6865 5.21094 34.6865 6.29561C34.6865 7.38458 35.5724 8.27044 36.6614 8.27044H51.2559C52.3484 8.27044 53.2378 7.38458 53.2378 6.29561C53.2378 5.21094 52.3484 4.32837 51.2559 4.32837ZM51.2559 7.07453H36.6614C36.2316 7.07453 35.8824 6.72506 35.8824 6.29561C35.8824 5.86322 36.2247 5.52428 36.6614 5.52428H51.2559C51.6893 5.52428 52.0419 5.87024 52.0419 6.29561C52.0419 6.72506 51.6893 7.07453 51.2559 7.07453Z" fill="#1A2E35" />
		</g>
		<defs>
			<clipPath id="clip0_23_2">
				<rect width="58" height="58" fill="white" />
			</clipPath>
		</defs>
	</symbol>
	<symbol id="icon-spiral" viewBox="0 0 59 59">
		<g clip-path="url(#clip0_41_5)">
			<circle cx="29.5" cy="29.5" r="8.5" fill="#38BFF2" />
			<circle cx="41.5" cy="5.5" r="4.5" fill="#38BFF2" />
			<circle cx="5.5" cy="17.5" r="4.5" fill="#38BFF2" />
			<circle cx="17.5" cy="53.5" r="4.5" fill="#38BFF2" />
			<circle cx="53.5" cy="41.5" r="4.5" fill="#38BFF2" />
			<path d="M20.7301 27.1506C19.435 31.9859 22.3148 36.9738 27.1506 38.27C27.9344 38.4797 28.7218 38.5798 29.4973 38.5798C33.5057 38.5798 37.1839 35.9013 38.2698 31.8494C38.8974 29.5073 38.575 27.0609 37.3624 24.9607C36.1498 22.8606 34.1919 21.3583 31.8498 20.7307C29.5062 20.1026 27.0602 20.4255 24.9606 21.6376C22.8604 22.8501 21.3582 24.808 20.7301 27.1506ZM29.5016 22.0153C30.1406 22.0153 30.791 22.0979 31.4367 22.2713H31.4373C33.3683 22.7883 34.9821 24.0269 35.9813 25.7579C36.9811 27.4891 37.2468 29.5063 36.7293 31.4367C35.6611 35.4227 31.5489 37.7996 27.5634 36.7293C23.5768 35.6611 21.2025 31.5494 22.2708 27.5633C23.1657 24.223 26.197 22.0153 29.5016 22.0153ZM13.7277 25.9516C13.7474 25.9532 13.7667 25.9537 13.7859 25.9537C14.2002 25.9537 14.5501 25.6329 14.5801 25.2134C15.5815 11.2302 26.0635 5.25116 36.2752 5.40442C36.3114 6.2227 36.5414 7.02646 36.9628 7.75612C37.6532 8.95214 38.7682 9.80752 40.1022 10.1652C40.5476 10.2846 40.9992 10.3433 41.4482 10.3433C42.3441 10.3433 43.2287 10.1081 44.0254 9.64816C44.948 9.11554 45.665 8.32861 46.11 7.38507C49.8337 8.82365 53.3097 10.9689 56.4464 13.7883C56.599 13.9253 56.7896 13.9928 56.979 13.9928C57.1975 13.9928 57.4151 13.9035 57.5724 13.7286C57.8667 13.4011 57.8402 12.8971 57.5127 12.6028C54.1966 9.62188 50.5126 7.35868 46.5608 5.85014C46.8982 3.31591 45.3122 0.855771 42.778 0.176464C40.0295 -0.559077 37.196 1.07218 36.4512 3.81591C23.5191 3.52794 13.9142 12.1898 12.9894 25.0992C12.958 25.5384 13.2886 25.9199 13.7277 25.9516ZM37.9864 4.24505C38.4136 2.64939 39.8623 1.59465 41.4409 1.59465C41.7466 1.59465 42.0571 1.63406 42.3659 1.71715C44.2699 2.22741 45.4041 4.19158 44.8938 6.09663C44.3835 8.00111 42.4173 9.13582 40.5143 8.62453C38.6104 8.11427 37.4762 6.1501 37.9864 4.24505ZM3.81596 22.5488C3.52753 35.479 12.1895 45.0853 25.0992 46.0105C25.1189 46.012 25.1381 46.0126 25.1574 46.0126C25.5716 46.0126 25.9215 45.6917 25.9516 45.2723C25.9833 44.8331 25.6525 44.4516 25.2135 44.4199C11.227 43.4178 5.24349 32.9287 5.40424 22.7175C6.2224 22.6813 7.02663 22.4583 7.75617 22.0372C8.95219 21.3469 9.80758 20.2319 10.1653 18.8978C10.5224 17.5643 10.3392 16.1705 9.64821 14.9745C9.11559 14.052 8.32866 13.3351 7.38512 12.8899C8.82359 9.16625 10.969 5.69008 13.7884 2.5534C14.0827 2.22591 14.0562 1.72187 13.7287 1.42756C13.4001 1.13222 12.8961 1.16022 12.6028 1.48726C9.62205 4.80347 7.35873 8.4874 5.85031 12.4392C3.31608 12.1021 0.855477 13.6877 0.176631 16.2219C-0.559487 18.9698 1.07281 21.8033 3.81596 22.5488ZM1.7172 16.634C2.14437 15.0384 3.5931 13.9836 5.1717 13.9836C5.47741 13.9836 5.78786 14.023 6.09668 14.1061C8.0007 14.6164 9.13484 16.5805 8.62458 18.4856C8.11432 20.3901 6.1475 21.5243 4.2451 21.0135C2.34119 20.5032 1.20694 18.5391 1.7172 16.634ZM45.2722 33.0485C44.8258 33.0111 44.4515 33.348 44.42 33.7867C43.4186 47.77 32.9398 53.7561 22.7249 53.5961C22.6889 52.7775 22.4588 51.9738 22.0373 51.2439C21.3469 50.0478 20.2319 49.1925 18.8978 48.8348C17.5638 48.4777 16.1712 48.6613 14.9746 49.3518C14.052 49.8844 13.335 50.6714 12.89 51.6149C9.16641 50.1763 5.69025 48.0311 2.55357 45.2117C2.22504 44.9163 1.721 44.9443 1.42773 45.2714C1.13342 45.5989 1.15993 46.1029 1.48742 46.3972C4.80352 49.3781 8.48745 51.6413 12.4393 53.1498C12.1019 55.6841 13.6879 58.1442 16.2221 58.8235C16.6685 58.9429 17.117 59.0001 17.5587 59.0001C19.8362 59.0001 21.9256 57.4814 22.5493 55.1831C22.7579 55.1878 22.9682 55.1978 23.1751 55.1978C35.7888 55.1978 45.1005 46.6018 46.0105 33.9008C46.042 33.4617 45.7114 33.0802 45.2722 33.0485ZM21.0135 54.755C20.5033 56.6595 18.536 57.7942 16.6341 57.2829C14.73 56.7727 13.5959 54.8085 14.1062 52.9035C14.5333 51.3078 15.9821 50.2531 17.5607 50.2531C17.8664 50.2531 18.1768 50.2925 18.4857 50.3756C20.3896 50.8857 21.5238 52.85 21.0135 54.755ZM55.184 36.4513C55.4724 23.5211 46.8106 13.9148 33.9008 12.9895C33.4627 12.9563 33.0801 13.289 33.0485 13.7277C33.0168 14.1668 33.3475 14.5484 33.7866 14.5801C47.7696 15.582 53.7537 26.0662 53.5958 36.2751C52.7772 36.3112 51.9737 36.5416 51.2438 36.963C50.0478 37.6533 49.1924 38.7683 48.8347 40.1024C48.4776 41.4359 48.6608 42.8297 49.3518 44.0257C49.8844 44.9483 50.6713 45.6651 51.6149 46.1103C50.1764 49.834 48.0309 53.3101 45.2116 56.4468C44.9173 56.7743 44.9438 57.2783 45.2713 57.5726C45.4239 57.7097 45.6145 57.7772 45.8039 57.7772C46.0224 57.7772 46.24 57.6879 46.3973 57.513C49.377 54.1979 51.6397 50.5153 53.1483 46.5651C53.3758 46.5955 53.6028 46.6112 53.8279 46.6112C56.1108 46.6112 58.2053 45.0856 58.8236 42.7783C59.5595 40.0303 57.9272 37.1968 55.184 36.4513ZM57.2828 42.3661C56.7725 44.2706 54.8057 45.4053 52.9033 44.894C50.9993 44.3837 49.8651 42.4196 50.3754 40.5145C50.8026 38.9188 52.2513 37.8641 53.8299 37.8641C54.1356 37.8641 54.446 37.9035 54.7549 37.9866C56.6588 38.4967 57.793 40.461 57.2828 42.3661Z" fill="#1A2E35" />
		</g>
		<defs>
			<clipPath id="clip0_41_5">
				<rect width="59" height="59" fill="white" />
			</clipPath>
		</defs>
	</symbol>
	<symbol id="icon-monitor" viewBox="0 0 70 61">
		<path d="M68.9174 4.03239V39.613H1.08252V4.03239C1.08252 2.41479 2.37424 1.10461 3.96906 1.10461H66.0309C67.6257 1.10448 68.9174 2.41479 68.9174 4.03239Z" fill="white" />
		<path d="M1.08252 39.6139V46.1539C1.08252 47.771 2.37492 49.0817 3.96906 49.0817H66.0309C67.6252 49.0817 68.9174 47.7709 68.9174 46.1539V39.6139H1.08252Z" fill="#38BFF2" />
		<path d="M27.4297 49.0818H42.5697V55.9716H27.4297V49.0818Z" fill="#D7E9FF" />
		<path d="M48.6389 56.8238L50.4433 58.6447C50.8997 59.1053 50.5781 59.8956 49.9343 59.8956H20.0654C19.4216 59.8956 19.1 59.1053 19.5564 58.6447L21.3608 56.8238C21.9017 56.278 22.6336 55.9716 23.3967 55.9716H46.6029C47.3661 55.9716 48.0981 56.278 48.6389 56.8238Z" fill="#38BFF2" />
		<path d="M35.0001 45.8043C35.7932 45.8043 36.4362 45.1522 36.4362 44.3477C36.4362 43.5433 35.7932 42.8911 35.0001 42.8911C34.2069 42.8911 33.564 43.5433 33.564 44.3477C33.564 45.1522 34.2069 45.8043 35.0001 45.8043Z" fill="#D7E9FF" />
		<path d="M69.6392 4.03227C69.6392 2.01431 68.0205 0.372437 66.0309 0.372437H3.96912C1.97959 0.372437 0.36084 2.01431 0.36084 4.03227V46.1543C0.36084 48.1722 1.97959 49.8141 3.96912 49.8141H26.7082V55.2395H23.3966C22.436 55.2395 21.5326 55.6183 20.8525 56.3053L19.0477 58.1259C18.137 59.0449 18.7796 60.6277 20.0653 60.6277H49.9348C51.2198 60.6277 51.8637 59.0456 50.9524 58.1259L49.1476 56.3053C48.4675 55.6177 47.5641 55.2395 46.6035 55.2395H43.2919V49.8141H66.0309C68.0205 49.8141 69.6392 48.1722 69.6392 46.1543C69.6392 31.1918 69.6392 20.0715 69.6392 4.03227ZM1.80418 4.03227C1.80418 2.82138 2.77529 1.8364 3.96912 1.8364H66.0309C67.2248 1.8364 68.1959 2.82138 68.1959 4.03227V38.8811H1.80418V4.03227ZM48.1293 57.3423C48.13 57.343 48.13 57.343 48.13 57.343L49.9348 59.1636H20.0653L21.8708 57.3423C22.2789 56.9306 22.8207 56.7033 23.3966 56.7033H46.6035C47.1792 56.7033 47.7212 56.9306 48.1293 57.3423ZM41.8487 55.2394H28.1514V49.814H41.8487V55.2394ZM68.1959 46.1543C68.1959 47.3652 67.2248 48.3501 66.0309 48.3501C45.3319 48.3501 24.6188 48.3501 3.96912 48.3501C2.77529 48.3501 1.80418 47.3652 1.80418 46.1543V40.3457H68.1959V46.1543Z" fill="#1A2E35" />
		<path d="M34.9998 46.5366C36.1894 46.5366 37.1577 45.5545 37.1577 44.348C37.1577 43.1414 36.1895 42.1592 34.9998 42.1592C33.8102 42.1592 32.8418 43.1412 32.8418 44.348C32.8418 45.5545 33.8102 46.5366 34.9998 46.5366ZM34.9998 43.6231C35.3937 43.6231 35.7144 43.9483 35.7144 44.348C35.7144 44.7475 35.3938 45.0728 34.9998 45.0728C34.6057 45.0728 34.2851 44.7476 34.2851 44.348C34.2851 43.9483 34.6059 43.6231 34.9998 43.6231Z" fill="#1A2E35" />
		<path d="M56.0665 9H7.7216C7.32265 9 7 9.3274 7 9.73191C7 10.1364 7.32279 10.4638 7.7216 10.4638H56.0665C56.4655 10.4638 56.7881 10.1364 56.7881 9.73191C56.7881 9.3274 56.4653 9 56.0665 9Z" fill="#1A2E35" />
		<path d="M56.0665 14H7.7216C7.32265 14 7 14.3274 7 14.7319C7 15.1364 7.32279 15.4638 7.7216 15.4638H56.0665C56.4655 15.4638 56.7881 15.1364 56.7881 14.7319C56.7881 14.3274 56.4653 14 56.0665 14Z" fill="#1A2E35" />
		<path d="M46.0665 19H7.7216C7.32265 19 7 19.3274 7 19.7319C7 20.1364 7.32279 20.4638 7.7216 20.4638H46.0665C46.4655 20.4638 46.7881 20.1364 46.7881 19.7319C46.7881 19.3274 46.4653 19 46.0665 19Z" fill="#1A2E35" />
		<path d="M36.0665 24H7.7216C7.32265 24 7 24.3274 7 24.7319C7 25.1364 7.32279 25.4638 7.7216 25.4638H36.0665C36.4655 25.4638 36.7881 25.1364 36.7881 24.7319C36.7881 24.3274 36.4653 24 36.0665 24Z" fill="#1A2E35" />
		<path d="M26.0665 29H7.7216C7.32265 29 7 29.3274 7 29.7319C7 30.1364 7.32279 30.4638 7.7216 30.4638H26.0665C26.4655 30.4638 26.7881 30.1364 26.7881 29.7319C26.7881 29.3274 26.4653 29 26.0665 29Z" fill="#1A2E35" />
	</symbol>
	<symbol id="icon-calendar" viewBox="0 0 72 72">
		<path d="M63.5554 11.1207V63.2324C63.5554 64.6005 62.4479 65.708 61.0798 65.708H10.9747C9.60662 65.708 8.4991 64.6005 8.4991 63.2324V59.988C7.16363 59.988 5.95189 59.4408 5.07889 58.5678C4.19294 57.6949 3.65869 56.4766 3.65869 55.1411H8.4991V11.1207C8.4991 9.75265 9.60662 8.64514 10.9747 8.64514H61.0798C62.448 8.64514 63.5554 9.75265 63.5554 11.1207Z" fill="white" />
		<path d="M8.68927 59.4095C6.12819 59.4095 4.87813 56.3606 4.57324 54.8361L54.4229 54.3788C55.3643 58.1443 57.4943 59.2634 58.851 59.4095H59.4536C59.28 59.4312 59.0761 59.4337 58.851 59.4095H8.68927Z" fill="#38BFF2" />
		<path d="M19.182 27.8533C17.0227 27.8533 15.2661 29.6061 15.2661 31.7602C15.2661 33.915 17.0227 35.6679 19.182 35.6679C21.3362 35.6679 23.0889 33.915 23.0889 31.7602C23.0889 29.6061 21.3362 27.8533 19.182 27.8533Z" fill="#38BFF2" />
		<path d="M19.182 27.8533C17.0227 27.8533 15.2661 29.6061 15.2661 31.7602C15.2661 33.915 17.0227 35.6679 19.182 35.6679C21.3362 35.6679 23.0889 33.915 23.0889 31.7602C23.0889 29.6061 21.3362 27.8533 19.182 27.8533ZM19.182 34.3648C17.7413 34.3648 16.5691 33.1962 16.5691 31.7602C16.5691 30.3243 17.7413 29.1561 19.182 29.1561C20.6179 29.1561 21.786 30.3243 21.786 31.7602C21.786 33.1962 20.6179 34.3648 19.182 34.3648Z" fill="#1A2E35" />
		<path d="M30.7528 27.8533C28.5935 27.8533 26.8369 29.6061 26.8369 31.7602C26.8369 33.915 28.5935 35.6679 30.7528 35.6679C32.9073 35.6679 34.66 33.915 34.66 31.7602C34.6601 29.6061 32.9073 27.8533 30.7528 27.8533Z" fill="#38BFF2" />
		<path d="M30.7528 27.8533C28.5935 27.8533 26.8369 29.6061 26.8369 31.7602C26.8369 33.915 28.5935 35.6679 30.7528 35.6679C32.9073 35.6679 34.66 33.915 34.66 31.7602C34.6601 29.6061 32.9073 27.8533 30.7528 27.8533ZM30.7528 34.3648C29.3121 34.3648 28.1399 33.1962 28.1399 31.7602C28.1399 30.3243 29.3121 29.1561 30.7528 29.1561C32.1887 29.1561 33.3571 30.3243 33.3571 31.7602C33.3571 33.1962 32.1887 34.3648 30.7528 34.3648Z" fill="#1A2E35" />
		<path d="M42.3246 27.9315C40.1653 27.9315 38.4087 29.6843 38.4087 31.8385C38.4087 33.9933 40.1653 35.7461 42.3246 35.7461C44.4791 35.7461 46.2318 33.9933 46.2318 31.8385C46.2318 29.6843 44.4791 27.9315 42.3246 27.9315Z" fill="#38BFF2" />
		<path d="M42.3246 27.8533C40.1653 27.8533 38.4087 29.6061 38.4087 31.7602C38.4087 33.915 40.1653 35.6679 42.3246 35.6679C44.4791 35.6679 46.2318 33.915 46.2318 31.7602C46.2318 29.6061 44.4791 27.8533 42.3246 27.8533ZM42.3246 34.3648C40.8839 34.3648 39.7117 33.1962 39.7117 31.7602C39.7117 30.3243 40.8839 29.1561 42.3246 29.1561C43.7605 29.1561 44.9289 30.3243 44.9289 31.7602C44.9288 33.1962 43.7605 34.3648 42.3246 34.3648Z" fill="#1A2E35" />
		<path d="M53.8958 35.6679C56.0504 35.6679 57.8031 33.915 57.8031 31.7602C57.8031 29.6059 56.0503 27.8533 53.8958 27.8533C51.7366 27.8533 49.98 29.6061 49.98 31.7602C49.98 33.915 51.7366 35.6679 53.8958 35.6679Z" fill="#38BFF2" />
		<path d="M53.8958 35.6679C56.0504 35.6679 57.8031 33.915 57.8031 31.7602C57.8031 29.6059 56.0503 27.8533 53.8958 27.8533C51.7366 27.8533 49.98 29.6061 49.98 31.7602C49.98 33.915 51.7366 35.6679 53.8958 35.6679ZM53.8958 29.1563C55.3318 29.1563 56.5002 30.3244 56.5002 31.7604C56.5002 33.1963 55.3318 34.365 53.8958 34.365C52.4552 34.365 51.283 33.1963 51.283 31.7604C51.283 30.3243 52.4552 29.1563 53.8958 29.1563Z" fill="#1A2E35" />
		<path d="M19.182 38.8293C17.0227 38.8293 15.2661 40.5822 15.2661 42.737C15.2661 44.8913 17.0227 46.6439 19.182 46.6439C21.3362 46.6439 23.0889 44.8911 23.0889 42.737C23.0889 40.5822 21.3362 38.8293 19.182 38.8293Z" fill="#38BFF2" />
		<path d="M19.182 38.8293C17.0227 38.8293 15.2661 40.5822 15.2661 42.737C15.2661 44.8913 17.0227 46.6439 19.182 46.6439C21.3362 46.6439 23.0889 44.8911 23.0889 42.737C23.0889 40.5822 21.3362 38.8293 19.182 38.8293ZM19.182 45.3409C17.7413 45.3409 16.5691 44.1728 16.5691 42.7368C16.5691 41.3009 17.7413 40.1322 19.182 40.1322C20.6179 40.1322 21.786 41.3009 21.786 42.7368C21.786 44.1728 20.6179 45.3409 19.182 45.3409Z" fill="#1A2E35" />
		<path d="M30.7528 38.8293C28.5935 38.8293 26.8369 40.5822 26.8369 42.737C26.8369 44.8913 28.5935 46.6439 30.7528 46.6439C32.9073 46.6439 34.66 44.8911 34.66 42.737C34.6601 40.5822 32.9073 38.8293 30.7528 38.8293Z" fill="#38BFF2" />
		<path d="M30.7528 38.8293C28.5935 38.8293 26.8369 40.5822 26.8369 42.737C26.8369 44.8913 28.5935 46.6439 30.7528 46.6439C32.9073 46.6439 34.66 44.8911 34.66 42.737C34.6601 40.5822 32.9073 38.8293 30.7528 38.8293ZM30.7528 45.3409C29.3121 45.3409 28.1399 44.1728 28.1399 42.7368C28.1399 41.3009 29.3121 40.1322 30.7528 40.1322C32.1887 40.1322 33.3571 41.3009 33.3571 42.7368C33.3571 44.1728 32.1887 45.3409 30.7528 45.3409Z" fill="#1A2E35" />
		<path d="M42.3245 38.8293C40.1653 38.8293 38.4087 40.5822 38.4087 42.737C38.4087 44.8913 40.1653 46.6439 42.3245 46.6439C44.4791 46.6439 46.2318 44.8911 46.2318 42.737C46.2318 40.5822 44.4791 38.8293 42.3245 38.8293ZM42.3245 45.3409C40.8839 45.3409 39.7117 44.1728 39.7117 42.7368C39.7117 41.3009 40.8839 40.1322 42.3245 40.1322C43.7605 40.1322 44.9289 41.3009 44.9289 42.7368C44.9289 44.1728 43.7605 45.3409 42.3245 45.3409Z" fill="#1A2E35" />
		<path d="M57.8031 42.737C57.8031 40.5822 56.0503 38.8293 53.8958 38.8293C51.7366 38.8293 49.98 40.5822 49.98 42.737C49.98 44.8913 51.7366 46.6439 53.8958 46.6439C56.0504 46.6439 57.8031 44.8911 57.8031 42.737ZM53.8958 45.3409C52.4552 45.3409 51.283 44.1728 51.283 42.7368C51.283 41.3009 52.4552 40.1322 53.8958 40.1322C55.3318 40.1322 56.5002 41.3009 56.5002 42.7368C56.5002 44.1728 55.3318 45.3409 53.8958 45.3409Z" fill="#1A2E35" />
		<path d="M61.5862 7.43102H56.3575V3.90644C56.3575 3.54637 56.0659 3.255 55.7061 3.255C55.3463 3.255 55.0547 3.54637 55.0547 3.90644V7.43102H16.4587V3.90644C16.4587 3.54637 16.1671 3.255 15.8073 3.255C15.4475 3.255 15.1558 3.54637 15.1558 3.90644V7.43102H11.4827C9.75861 7.43102 8.3561 8.83381 8.3561 10.5581C8.35583 16.2883 8.35415 53.6848 8.35415 53.9291H4.16364C3.80386 53.9291 3.51221 54.2204 3.51221 54.5805C3.51221 57.4732 5.69629 59.7191 8.35401 60.0329V62.6699C8.35401 64.394 9.7568 65.7969 11.481 65.7969H61.5863C63.3104 65.7969 64.7133 64.3941 64.7133 62.6699C64.7133 51.1802 64.7133 21.4647 64.7133 10.5581C64.7132 8.83381 63.3104 7.43102 61.5862 7.43102ZM11.4826 8.73403H15.1557V13.9039C15.1557 14.2639 15.4474 14.5553 15.8071 14.5553C16.1669 14.5553 16.4586 14.2639 16.4586 13.9039V8.73403H55.0545V13.9039C55.0545 14.2639 55.3462 14.5553 55.706 14.5553C56.0657 14.5553 56.3574 14.2639 56.3574 13.9039V8.73403H61.586C62.5918 8.73403 63.41 9.55227 63.41 10.5581V19.0731H9.65884V10.5579C9.65884 9.55213 10.4771 8.73403 11.4826 8.73403ZM9.65703 20.3766H63.4103V54.5786C63.4103 56.891 61.5324 58.7723 59.2237 58.7735C59.2216 58.7735 59.2201 58.7724 59.218 58.7724C56.9031 58.7724 55.026 56.8963 55.026 54.5804C55.026 54.2203 54.7343 53.9289 54.3745 53.9289H9.65703V20.3766ZM4.86469 55.2319H53.7611C53.9243 56.6194 54.6051 57.8707 55.666 58.7724H9.0074C6.89786 58.7724 5.16985 57.2184 4.86469 55.2319ZM63.4102 62.6699C63.4102 63.6757 62.592 64.4939 61.5862 64.4939H11.481C10.4753 64.4939 9.65703 63.6758 9.65703 62.6699V60.0767H59.2212C60.8995 60.0767 62.4022 59.3172 63.4103 58.1258V62.6699H63.4102Z" fill="#1A2E35" />
	</symbol>
	<symbol id="icon-chat" viewBox="0 0 64 57">
		<path d="M0.75 5.99999C0.75 3.1005 3.1005 0.75 6 0.75H43.3269C46.2264 0.75 48.5769 3.10051 48.5769 6V34.5577C48.5769 37.4572 46.2264 39.8077 43.3269 39.8077H19.4188C17.7034 39.8077 16.0128 40.2182 14.4884 41.005L2.57331 47.1548C1.74134 47.5842 0.75 46.9802 0.75 46.044V40.5577V5.99999Z" fill="white" stroke="#263238" stroke-width="1.5" />
		<path d="M51.7265 13.1538H56.481C59.7947 13.1538 62.481 15.8401 62.481 19.1538V48.6205V53.4776C62.481 55.03 60.7893 55.9905 59.4561 55.195L50.8054 50.0331C49.256 49.1086 47.4854 48.6205 45.6812 48.6205H27.2457C24.3062 48.6205 21.9233 46.2375 21.9233 43.298V43.298" fill="none" stroke="#263238" stroke-width="1.5" />
		<rect x="10.2114" y="12.4038" width="30" height="3.69231" rx="1.84615" fill="#38BFF2" stroke="#263238" stroke-width="1.5" />
		<rect x="10.2114" y="20.0769" width="23.4231" height="3.69231" rx="1.84615" fill="#38BFF2" stroke="#263238" stroke-width="1.5" />
	</symbol>
	<symbol id="icon-rubl" viewBox="0 0 59 59">
		<g clip-path="url(#clip0_25_108)">
			<path d="M49.9155 49.922C61.1942 38.6433 61.1942 20.3567 49.9155 9.07798C38.6367 -2.20079 20.3502 -2.20078 9.07143 9.07798C-2.20734 20.3568 -2.20734 38.6432 9.07143 49.922C20.3502 61.2008 38.6367 61.2008 49.9155 49.922Z" fill="#38BFF2" />
			<path d="M29.4998 52.2396C42.0585 52.2396 52.2393 42.0588 52.2393 29.5C52.2393 16.9413 42.0585 6.7605 29.4998 6.7605C16.9411 6.7605 6.76025 16.9413 6.76025 29.5C6.76025 42.0588 16.9411 52.2396 29.4998 52.2396Z" fill="white" />
			<path d="M29.5 0C13.2336 0 0 13.2336 0 29.5C0 45.7664 13.2336 59 29.5 59C45.7664 59 59 45.7664 59 29.5C59 13.2336 45.7664 0 29.5 0ZM29.5 57.7708C13.9116 57.7708 1.22921 45.0884 1.22921 29.5C1.22921 13.9116 13.9116 1.22921 29.5 1.22921C45.0884 1.22921 57.7708 13.9116 57.7708 29.5C57.7708 45.0884 45.0884 57.7708 29.5 57.7708Z" fill="#1A2E35" />
			<path d="M29.5002 6.14575C16.6228 6.14575 6.146 16.6225 6.146 29.5C6.146 42.3774 16.6228 52.8542 29.5002 52.8542C42.3776 52.8542 52.8544 42.3774 52.8544 29.5C52.8544 16.6225 42.3776 6.14575 29.5002 6.14575ZM29.5002 51.625C17.3003 51.625 7.3752 41.6998 7.3752 29.5C7.3752 17.3001 17.3003 7.37496 29.5002 7.37496C41.7001 7.37496 51.6252 17.3001 51.6252 29.5C51.6252 41.6998 41.7001 51.625 29.5002 51.625Z" fill="#1A2E35" />
			<path d="M31.9606 16.2147H23.787C23.7766 16.2142 23.7678 16.2087 23.7572 16.2087C23.4179 16.2087 23.1427 16.4839 23.1427 16.8233V16.8293V28.5813H20.8558C20.5164 28.5813 20.2412 28.8565 20.2412 29.1959C20.2412 29.5352 20.5164 29.8104 20.8558 29.8104H23.1427V32.412H20.8558C20.5164 32.412 20.2412 32.6871 20.2412 33.0265C20.2412 33.3659 20.5164 33.641 20.8558 33.641H23.1427V42.1765C23.1427 42.5158 23.4179 42.791 23.7572 42.791C24.0966 42.791 24.3718 42.5158 24.3718 42.1765V33.641H35.4622C35.8015 33.641 36.0767 33.3659 36.0767 33.0265C36.0767 32.6871 35.8015 32.412 35.4622 32.412H24.3719V29.8104H25.4079H31.5303C35.2994 29.8104 38.4653 27.0646 38.7375 23.5593C38.7375 23.559 38.7375 23.559 38.7375 23.559C39.0536 19.4844 35.8367 16.2147 31.9606 16.2147ZM37.512 23.4642V23.4639C37.2893 26.3337 34.6618 28.5813 31.5303 28.5813H25.4079H24.3719V17.4438H31.9606C35.1346 17.4439 37.7717 20.1178 37.512 23.4642Z" fill="#1A2E35" />
		</g>
		<defs>
			<clipPath id="clip0_25_108">
				<rect width="59" height="59" fill="white" />
			</clipPath>
		</defs>
	</symbol>
	<symbol id="icon-phone" viewBox="0 0 60 60">
		<path d="M39.2662 4.02055V55.9793C39.2662 57.6874 37.8815 59.0721 36.1734 59.0721H8.2476C6.53947 59.0721 5.15479 57.6874 5.15479 55.9793V4.02055C5.15479 2.31242 6.53947 0.927734 8.2476 0.927734H36.1734C37.8815 0.927852 39.2662 2.31254 39.2662 4.02055Z" fill="white" />
		<path d="M30.8146 0.927856V3.39711C30.8146 4.76364 29.7068 5.8713 28.3404 5.8713H16.0806C14.7141 5.8713 13.6064 4.76352 13.6064 3.39711V0.927856H30.8146Z" fill="#38BFF2" />
		<path d="M54.845 20.7649V40.4721C54.845 41.8387 53.7373 42.9463 52.3709 42.9463H22.21V18.2906H52.3707C53.7373 18.2906 54.845 19.3984 54.845 20.7649Z" fill="#38BFF2" />
		<path d="M22.21 23.3474H54.845V29.4781H22.21V23.3474Z" fill="#D7E9FF" />
		<path d="M14.056 54.7422C13.7144 54.7422 13.4375 55.0189 13.4375 55.3607C13.4375 55.7027 13.7144 55.9792 14.056 55.9792H30.3654C30.707 55.9792 30.9839 55.7025 30.9839 55.3607C30.9839 55.0187 30.707 54.7422 30.3654 54.7422H14.056Z" fill="#1A2E35" />
		<path d="M26.6971 4.01816H27.8016C28.1432 4.01816 28.4201 3.74148 28.4201 3.39964C28.4201 3.05781 28.1432 2.78113 27.8016 2.78113H26.6971C26.3555 2.78113 26.0786 3.05781 26.0786 3.39964C26.0786 3.74148 26.3555 4.01816 26.6971 4.01816Z" fill="#1A2E35" />
		<path d="M16.6195 4.01816H23.7982C24.1398 4.01816 24.4167 3.74148 24.4167 3.39964C24.4167 3.05781 24.1398 2.78113 23.7982 2.78113H16.6195C16.2779 2.78113 16.001 3.05781 16.001 3.39964C16.001 3.74148 16.2779 4.01816 16.6195 4.01816Z" fill="#1A2E35" />
		<path d="M52.3708 17.6723H39.8849V4.02053C39.8849 1.97397 38.2202 0.309204 36.1736 0.309204C30.0917 0.309204 14.3337 0.309204 8.24795 0.309204C6.20139 0.309204 4.53662 1.97397 4.53662 4.02053V55.9792C4.53662 58.0258 6.20139 59.6906 8.24795 59.6906H36.1735C38.2201 59.6906 39.8848 58.0258 39.8848 55.9792V43.5647H52.3707C54.076 43.5647 55.4635 42.1772 55.4635 40.4719C55.4635 33.2803 55.4635 27.8474 55.4635 20.7651C55.4636 19.0598 54.076 17.6723 52.3708 17.6723ZM54.2265 20.7651V22.7289H22.8286V18.9094H52.3708C53.3941 18.9094 54.2265 19.7418 54.2265 20.7651ZM54.2265 28.8595H22.8286V23.966H54.2265V28.8595ZM30.1961 1.54635V3.39721C30.1961 4.42049 29.3637 5.25288 28.3404 5.25288H16.0808C15.0575 5.25288 14.2251 4.42049 14.2251 3.39721V1.54635H30.1961ZM38.6478 55.9794C38.6478 57.3439 37.5378 58.4535 36.1736 58.4535H8.24783C6.88353 58.4535 5.77365 57.3439 5.77365 55.9794V4.02053C5.77365 2.656 6.88365 1.54635 8.24783 1.54635H12.9878V3.39721C12.9878 5.10252 14.3753 6.49002 16.0806 6.49002H28.3403C30.0456 6.49002 31.4331 5.10252 31.4331 3.39721V1.54635H36.1735C37.5378 1.54635 38.6477 2.656 38.6477 4.02053V17.6723H22.8285V14.8822C22.8285 14.5402 22.5516 14.2637 22.21 14.2637C21.8684 14.2637 21.5915 14.5403 21.5915 14.8822V46.3482C21.5915 46.6901 21.8684 46.9667 22.21 46.9667C22.5516 46.9667 22.8285 46.69 22.8285 46.3482V43.5646H38.6477V55.9794H38.6478ZM52.3708 42.3276H22.8286V34.7671H43.2788C43.6204 34.7671 43.8973 34.4905 43.8973 34.1486C43.8973 33.8067 43.6204 33.5301 43.2788 33.5301H22.8286V30.0966H54.2265V40.4719C54.2265 41.4952 53.3941 42.3276 52.3708 42.3276Z" fill="#1A2E35" />
		<path d="M43.2787 37.657H41.5067C41.1651 37.657 40.8882 37.9337 40.8882 38.2755C40.8882 38.6175 41.1651 38.894 41.5067 38.894H43.2787C43.6203 38.894 43.8972 38.6173 43.8972 38.2755C43.8972 37.9337 43.6203 37.657 43.2787 37.657Z" fill="#1A2E35" />
		<path d="M38.2133 37.657H36.4413C36.0997 37.657 35.8228 37.9337 35.8228 38.2755C35.8228 38.6175 36.0997 38.894 36.4413 38.894H38.2133C38.5549 38.894 38.8318 38.6173 38.8318 38.2755C38.8318 37.9337 38.5549 37.657 38.2133 37.657Z" fill="#1A2E35" />
		<path d="M33.1478 37.657H31.3758C31.0342 37.657 30.7573 37.9337 30.7573 38.2755C30.7573 38.6175 31.0342 38.894 31.3758 38.894H33.1478C33.4894 38.894 33.7663 38.6173 33.7663 38.2755C33.7665 37.9337 33.4894 37.657 33.1478 37.657Z" fill="#1A2E35" />
		<path d="M28.0829 37.657H26.3109C25.9693 37.657 25.6924 37.9337 25.6924 38.2755C25.6924 38.6175 25.9693 38.894 26.3109 38.894H28.0829C28.4245 38.894 28.7014 38.6173 28.7014 38.2755C28.7015 37.9337 28.4245 37.657 28.0829 37.657Z" fill="#1A2E35" />
	</symbol>
	<symbol id="icon-window" viewBox="0 0 61 61">
		<g clip-path="url(#clip0_38_3150)">
			<path d="M60.363 3.17737V11.3678H0.635742V3.17737C0.635742 1.77365 1.77365 0.635742 3.17737 0.635742H57.8213C59.2251 0.635742 60.363 1.77365 60.363 3.17737Z" fill="#38BFF2" />
			<path d="M60.3643 11.3679V57.8226C60.3643 59.2268 59.227 60.3643 57.8227 60.3643H3.17737C1.77306 60.3643 0.635742 59.2268 0.635742 57.8226V11.3679H60.3643Z" fill="white" />
			<path d="M55.9163 28.8292V17.0863C55.9163 16.3844 55.3473 15.8154 54.6454 15.8154H6.35437C5.65251 15.8154 5.0835 16.3844 5.0835 17.0863V28.8292C5.0835 29.531 5.65251 30.1 6.35437 30.1H54.6455C55.3473 30.0999 55.9163 29.5309 55.9163 28.8292Z" fill="#38BFF2" />
			<path d="M28.3016 6.00183C28.3016 6.83534 27.626 7.51098 26.7925 7.51098H5.9574C5.12389 7.51098 4.44824 6.83534 4.44824 6.00183C4.44824 5.16832 5.12389 4.49268 5.9574 4.49268H26.7925C27.626 4.49268 28.3016 5.16832 28.3016 6.00183Z" fill="white" />
			<path d="M54.9973 7.55519C55.8553 7.55519 56.5508 6.85968 56.5508 6.00172C56.5508 5.14376 55.8553 4.44824 54.9973 4.44824C54.1394 4.44824 53.4438 5.14376 53.4438 6.00172C53.4438 6.85968 54.1394 7.55519 54.9973 7.55519Z" fill="white" />
			<path d="M48.7542 7.55519C49.6121 7.55519 50.3076 6.85968 50.3076 6.00172C50.3076 5.14376 49.6121 4.44824 48.7542 4.44824C47.8962 4.44824 47.2007 5.14376 47.2007 6.00172C47.2007 6.85968 47.8962 7.55519 48.7542 7.55519Z" fill="white" />
			<path d="M42.5115 7.55519C43.3694 7.55519 44.065 6.85968 44.065 6.00172C44.065 5.14376 43.3694 4.44824 42.5115 4.44824C41.6535 4.44824 40.958 5.14376 40.958 6.00172C40.958 6.85968 41.6535 7.55519 42.5115 7.55519Z" fill="white" />
			<path d="M37.4894 43.9776V35.8185C37.4894 35.1166 36.9204 34.5476 36.2185 34.5476H24.7811C24.0793 34.5476 23.5103 35.1166 23.5103 35.8185V43.9776C23.5103 44.6794 24.0793 45.2485 24.7811 45.2485H36.2185C36.9204 45.2483 37.4894 44.6794 37.4894 43.9776Z" fill="#38BFF2" />
			<path d="M19.0625 43.9776V35.8185C19.0625 35.1166 18.4935 34.5476 17.7916 34.5476H6.35437C5.65251 34.5476 5.0835 35.1166 5.0835 35.8185V43.9776C5.0835 44.6794 5.65251 45.2485 6.35437 45.2485H17.7917C18.4936 45.2483 19.0625 44.6794 19.0625 43.9776Z" fill="#38BFF2" />
			<path d="M55.9166 43.9776V35.8185C55.9166 35.1166 55.3476 34.5476 54.6458 34.5476H43.2084C42.5065 34.5476 41.9375 35.1166 41.9375 35.8185V43.9776C41.9375 44.6794 42.5065 45.2485 43.2084 45.2485H54.6458C55.3476 45.2483 55.9166 44.6794 55.9166 43.9776Z" fill="#38BFF2" />
			<path d="M60.9986 3.17749C60.9986 1.42577 59.5733 0.000488281 57.8216 0.000488281H3.17749C1.42577 0.000488281 0.000488281 1.42577 0.000488281 3.17749V57.8226C0.000488281 59.5744 1.42577 60.9996 3.17749 60.9996H57.8227C59.5744 60.9996 60.9997 59.5744 60.9997 57.8226C60.9998 57.2288 60.9987 10.1758 60.9986 3.17749ZM1.27136 3.17749C1.27136 2.12631 2.12643 1.27124 3.17761 1.27124H57.8215C58.8726 1.27124 59.7277 2.12631 59.7277 3.17749V10.7323H1.27136V3.17749ZM57.8228 59.729H3.17749C2.12631 59.729 1.27124 58.8739 1.27124 57.8228V12.0032H59.7289V57.8228C59.729 58.8739 58.874 59.729 57.8228 59.729Z" fill="#1A2E35" />
			<path d="M54.6455 15.1802H6.35449C5.30331 15.1802 4.44824 16.0352 4.44824 17.0864V28.829C4.44824 29.8802 5.30331 30.7353 6.35449 30.7353H54.6456C55.6968 30.7353 56.5519 29.8802 56.5519 28.829V17.0864C56.5518 16.0352 55.6967 15.1802 54.6455 15.1802ZM55.281 28.829C55.281 29.1797 54.9962 29.4644 54.6456 29.4644H6.35449C6.00386 29.4644 5.71912 29.1796 5.71912 28.829V17.0864C5.71912 16.7358 6.00398 16.451 6.35449 16.451H54.6456C54.9963 16.451 55.281 16.7359 55.281 17.0864V28.829Z" fill="#1A2E35" />
			<path d="M26.7927 3.85767H5.95752C4.77481 3.85767 3.81299 4.81949 3.81299 6.0022C3.81299 7.18491 4.77481 8.14673 5.95752 8.14673H26.7926C27.9753 8.14673 28.9371 7.18491 28.9371 6.0022C28.9371 4.81949 27.9754 3.85767 26.7927 3.85767ZM26.7927 6.87586H5.95752C5.47595 6.87586 5.08386 6.48365 5.08386 6.0022C5.08386 5.52075 5.47607 5.12854 5.95752 5.12854H26.7926C27.2742 5.12854 27.6663 5.52075 27.6663 6.0022C27.6663 6.48365 27.2742 6.87586 26.7927 6.87586Z" fill="#1A2E35" />
			<path d="M54.9967 3.81299C53.7898 3.81299 52.8081 4.7953 52.8081 6.0022C52.8081 7.20909 53.7898 8.19081 54.9967 8.19081C56.2036 8.19081 57.1859 7.20921 57.1859 6.0022C57.1859 4.79518 56.2036 3.81299 54.9967 3.81299ZM54.9967 6.91982C54.4904 6.91982 54.079 6.50843 54.079 6.00208C54.079 5.49573 54.4904 5.08374 54.9967 5.08374C55.5031 5.08374 55.9151 5.49573 55.9151 6.00208C55.9151 6.50843 55.5031 6.91982 54.9967 6.91982Z" fill="#1A2E35" />
			<path d="M48.7546 3.81299C47.5477 3.81299 46.5654 4.7953 46.5654 6.0022C46.5654 7.20909 47.5477 8.19081 48.7546 8.19081C49.9615 8.19081 50.9432 7.20921 50.9432 6.0022C50.9432 4.79518 49.9615 3.81299 48.7546 3.81299ZM48.7546 6.91982C48.2483 6.91982 47.8363 6.50843 47.8363 6.00208C47.8363 5.49573 48.2483 5.08374 48.7546 5.08374C49.261 5.08374 49.6724 5.49573 49.6724 6.00208C49.6724 6.50843 49.261 6.91982 48.7546 6.91982Z" fill="#1A2E35" />
			<path d="M42.5115 3.81299C41.3046 3.81299 40.3223 4.7953 40.3223 6.0022C40.3223 7.20909 41.3046 8.19081 42.5115 8.19081C43.7184 8.19081 44.7001 7.20921 44.7001 6.0022C44.7001 4.79518 43.7184 3.81299 42.5115 3.81299ZM42.5115 6.91982C42.0051 6.91982 41.5931 6.50843 41.5931 6.00208C41.5931 5.49573 42.0051 5.08374 42.5115 5.08374C43.0178 5.08374 43.4292 5.49573 43.4292 6.00208C43.4292 6.50843 43.0177 6.91982 42.5115 6.91982Z" fill="#1A2E35" />
			<path d="M19.0626 49.0605H5.08362C4.73239 49.0605 4.44824 49.3447 4.44824 49.6959C4.44824 50.0472 4.73239 50.3313 5.08362 50.3313H19.0626C19.4139 50.3313 19.698 50.0472 19.698 49.6959C19.698 49.3447 19.4139 49.0605 19.0626 49.0605Z" fill="#1A2E35" />
			<path d="M19.0626 55.2812H5.08362C4.73239 55.2812 4.44824 55.5654 4.44824 55.9166C4.44824 56.2678 4.73239 56.552 5.08362 56.552H19.0626C19.4139 56.552 19.698 56.2678 19.698 55.9166C19.698 55.5654 19.4139 55.2812 19.0626 55.2812Z" fill="#1A2E35" />
			<path d="M19.0626 52.1711H5.08362C4.73239 52.1711 4.44824 52.4553 4.44824 52.8065C4.44824 53.1577 4.73239 53.4419 5.08362 53.4419H19.0626C19.4139 53.4419 19.698 53.1577 19.698 52.8065C19.698 52.4553 19.4139 52.1711 19.0626 52.1711Z" fill="#1A2E35" />
			<path d="M37.4894 49.0605H23.5104C23.1591 49.0605 22.875 49.3447 22.875 49.6959C22.875 50.0472 23.1591 50.3313 23.5104 50.3313H37.4894C37.8406 50.3313 38.1248 50.0472 38.1248 49.6959C38.1248 49.3447 37.8406 49.0605 37.4894 49.0605Z" fill="#1A2E35" />
			<path d="M37.4894 55.2812H23.5104C23.1591 55.2812 22.875 55.5654 22.875 55.9166C22.875 56.2678 23.1591 56.552 23.5104 56.552H37.4894C37.8406 56.552 38.1248 56.2678 38.1248 55.9166C38.1248 55.5654 37.8406 55.2812 37.4894 55.2812Z" fill="#1A2E35" />
			<path d="M37.4894 52.1711H23.5104C23.1591 52.1711 22.875 52.4553 22.875 52.8065C22.875 53.1577 23.1591 53.4419 23.5104 53.4419H37.4894C37.8406 53.4419 38.1248 53.1577 38.1248 52.8065C38.1248 52.4553 37.8406 52.1711 37.4894 52.1711Z" fill="#1A2E35" />
			<path d="M55.9166 49.0605H41.9376C41.5864 49.0605 41.3022 49.3447 41.3022 49.6959C41.3022 50.0472 41.5864 50.3313 41.9376 50.3313H55.9166C56.2679 50.3313 56.552 50.0472 56.552 49.6959C56.552 49.3447 56.2679 49.0605 55.9166 49.0605Z" fill="#1A2E35" />
			<path d="M55.9166 55.2812H41.9376C41.5864 55.2812 41.3022 55.5654 41.3022 55.9166C41.3022 56.2678 41.5864 56.552 41.9376 56.552H55.9166C56.2679 56.552 56.552 56.2678 56.552 55.9166C56.552 55.5654 56.2679 55.2812 55.9166 55.2812Z" fill="#1A2E35" />
			<path d="M55.9166 52.1711H41.9376C41.5864 52.1711 41.3022 52.4553 41.3022 52.8065C41.3022 53.1577 41.5864 53.4419 41.9376 53.4419H55.9166C56.2679 53.4419 56.552 53.1577 56.552 52.8065C56.552 52.4553 56.2679 52.1711 55.9166 52.1711Z" fill="#1A2E35" />
			<path d="M36.2186 33.9124H24.7813C23.7301 33.9124 22.875 34.7674 22.875 35.8186V43.9778C22.875 45.029 23.7301 45.8841 24.7813 45.8841H36.2186C37.2698 45.8841 38.1249 45.029 38.1249 43.9778V35.8186C38.1249 34.7674 37.2698 33.9124 36.2186 33.9124ZM36.8541 43.9778C36.8541 44.3285 36.5693 44.6132 36.2188 44.6132H24.7814C24.4307 44.6132 24.146 44.3283 24.146 43.9778V35.8186C24.146 35.468 24.4309 35.1832 24.7814 35.1832H36.2188C36.5694 35.1832 36.8541 35.4681 36.8541 35.8186V43.9778Z" fill="#1A2E35" />
			<path d="M17.7919 33.9124H6.35449C5.30331 33.9124 4.44824 34.7674 4.44824 35.8186V43.9778C4.44824 45.029 5.30331 45.8841 6.35449 45.8841H17.7919C18.8431 45.8841 19.6981 45.029 19.6981 43.9778V35.8186C19.698 34.7674 18.8429 33.9124 17.7919 33.9124ZM18.4272 43.9778C18.4272 44.3285 18.1424 44.6132 17.7919 44.6132H6.35449C6.00386 44.6132 5.71912 44.3283 5.71912 43.9778V35.8186C5.71912 35.468 6.00398 35.1832 6.35449 35.1832H17.7919C18.1425 35.1832 18.4272 35.4681 18.4272 35.8186V43.9778Z" fill="#1A2E35" />
			<path d="M54.6454 33.9124H43.208C42.1568 33.9124 41.3018 34.7674 41.3018 35.8186V43.9778C41.3018 45.029 42.1568 45.8841 43.208 45.8841H54.6454C55.6966 45.8841 56.5516 45.029 56.5516 43.9778V35.8186C56.5516 34.7674 55.6966 33.9124 54.6454 33.9124ZM55.2809 43.9778C55.2809 44.3285 54.996 44.6132 54.6455 44.6132H43.2081C42.8575 44.6132 42.5728 44.3283 42.5728 43.9778V35.8186C42.5728 35.468 42.8576 35.1832 43.2081 35.1832H54.6455C54.9961 35.1832 55.2809 35.4681 55.2809 35.8186V43.9778Z" fill="#1A2E35" />
		</g>
		<defs>
			<clipPath id="clip0_38_3150">
				<rect width="61" height="61" fill="white" />
			</clipPath>
		</defs>
	</symbol>
	<symbol id="icon-speaker" viewBox="0 0 91 91">
		<path d="M89.593 44.7762C89.593 51.7491 83.9499 57.3921 76.9771 57.3921V32.1245C83.9501 32.1243 89.593 37.7854 89.593 44.7762Z" fill="white" />
		<path d="M73.7906 6.16992C72.0307 6.16992 70.604 7.5966 70.604 9.35652V80.1606C70.604 81.9205 72.0307 83.3472 73.7906 83.3472C75.5505 83.3472 76.9772 81.9205 76.9772 80.1606V9.35652C76.9772 7.5966 75.5505 6.16992 73.7906 6.16992Z" fill="white" />
		<path d="M70.6073 11.6543V77.8627C63.5179 65.0068 46.3304 57.4763 32.3936 56.7848V32.7325C46.3304 32.0408 63.5179 24.5105 70.6073 11.6543Z" fill="#38BFF2" />
		<path d="M32.3893 32.7289V56.791C32.3893 58.2169 31.2333 59.3729 29.8074 59.3729H9.79679C8.37083 59.3729 7.21484 58.2169 7.21484 56.791V32.7289C7.21484 31.303 8.37083 30.147 9.79679 30.147H29.8074C31.2333 30.1468 32.3893 31.303 32.3893 32.7289Z" fill="white" />
		<path d="M3.78069 35.8467H7.2147V53.6729H3.78069C2.46777 53.6729 1.40723 52.6125 1.40723 51.2994V38.2201C1.4074 36.9072 2.46777 35.8467 3.78069 35.8467Z" fill="#38BFF2" />
		<path d="M25.5083 27.6447V30.1429H14.1006V27.6447C14.1006 26.2759 15.2102 25.1665 16.5787 25.1665H23.0303C24.3989 25.1665 25.5083 26.2759 25.5083 27.6447Z" fill="white" />
		<path d="M18.3905 83.6098L25.8401 59.373H13.7632V83.1018C13.7632 84.0568 14.5374 84.831 15.4924 84.831H16.7377C17.4968 84.8308 18.1673 84.3357 18.3905 83.6098Z" fill="#38BFF2" />
		<path d="M90.5312 44.7765C90.5312 37.6006 84.951 31.7206 77.9157 31.2338V9.35595C77.9157 7.08202 76.0652 5.23145 73.7904 5.23145C71.5164 5.23145 69.6659 7.08202 69.6659 9.35595V11.4056C62.7632 23.6687 46.2956 30.8353 33.169 31.7423C32.739 30.2838 31.403 29.2091 29.8073 29.2091H26.4469V27.6443C26.4469 25.7607 24.9141 24.2279 23.0305 24.2279H16.5789C14.6953 24.2279 13.1625 25.7607 13.1625 27.6443V29.2091H9.79674C7.85624 29.2091 6.27689 30.7886 6.27689 32.7289V34.9085H3.78114C1.95528 34.9085 0.469238 36.3945 0.469238 38.2204V51.2995C0.469238 53.1253 1.95528 54.6105 3.78114 54.6105H6.27671V56.7909C6.27671 58.7314 7.85624 60.3108 9.79656 60.3108H12.8255V83.102C12.8255 84.5724 14.022 85.7689 15.4924 85.7689H16.7374C17.9165 85.7689 18.9408 85.0121 19.287 83.8853L26.5336 60.3108H29.8073C31.4039 60.3108 32.7408 59.2348 33.1697 57.7749C46.2961 58.682 62.7641 65.8488 69.6655 78.1105V80.1602C69.6655 82.4341 71.5161 84.2847 73.79 84.2847C76.0648 84.2847 77.9154 82.4341 77.9154 80.1602V58.2825C84.951 57.7971 90.5312 51.9329 90.5312 44.7765ZM15.0388 27.6443C15.0388 26.7951 15.7297 26.1042 16.5789 26.1042H23.0305C23.8797 26.1042 24.5706 26.7951 24.5706 27.6443V29.2044H15.0388V27.6443ZM3.78114 52.7341C2.98951 52.7341 2.34558 52.09 2.34558 51.2995V38.2204C2.34558 37.4287 2.98969 36.7848 3.78114 36.7848H6.27671V52.7341H3.78114ZM17.4933 83.3338V83.3347C17.3908 83.6681 17.0874 83.8926 16.7374 83.8926H15.4924C15.0563 83.8926 14.7019 83.538 14.7019 83.102V60.3108H24.5707L17.4933 83.3338ZM31.451 56.7909C31.451 57.697 30.7136 58.4345 29.8075 58.4345C22.7376 58.4345 16.8704 58.4345 9.79674 58.4345C8.89065 58.4345 8.15323 57.697 8.15323 56.7909C8.15323 50.7384 8.15323 38.7815 8.15323 32.7291C8.15323 31.823 8.89065 31.0856 9.79674 31.0856H29.8075C30.7136 31.0856 31.451 31.823 31.451 32.7291V56.7909ZM33.3318 55.9014V33.6158C46.0187 32.7254 61.7259 26.1664 69.6657 14.9181V74.598C61.727 63.3508 46.0188 56.7908 33.3318 55.9014ZM76.0394 80.1602C76.0394 81.3997 75.0308 82.4083 73.7902 82.4083C72.5507 82.4083 71.542 81.3997 71.542 80.1602C71.5466 -6.92025 71.542 15.7016 71.542 9.35595C71.542 8.11643 72.5507 7.10779 73.7902 7.10779C75.0306 7.10779 76.0394 8.11643 76.0394 9.35595V80.1602ZM77.9156 56.4163V33.1C83.9173 33.5801 88.6548 38.6336 88.6548 44.7765C88.6548 50.8999 83.9173 55.9371 77.9156 56.4163Z" fill="#1A2E35" />
		<path d="M28.033 33.8862H11.5714C11.0528 33.8862 10.6333 34.3059 10.6333 34.8243C10.6333 35.3428 11.0529 35.7624 11.5714 35.7624H28.033C28.5516 35.7624 28.971 35.3428 28.971 34.8243C28.971 34.3059 28.5514 33.8862 28.033 33.8862Z" fill="#1A2E35" />
		<path d="M28.033 38.8545H11.5714C11.0528 38.8545 10.6333 39.2741 10.6333 39.7926C10.6333 40.311 11.0529 40.7307 11.5714 40.7307H28.033C28.5516 40.7307 28.971 40.311 28.971 39.7926C28.971 39.2741 28.5514 38.8545 28.033 38.8545Z" fill="#1A2E35" />
		<path d="M28.033 43.8218H11.5714C11.0528 43.8218 10.6333 44.2414 10.6333 44.7599C10.6333 45.2783 11.0529 45.6979 11.5714 45.6979H28.033C28.5516 45.6979 28.971 45.2783 28.971 44.7599C28.971 44.2414 28.5514 43.8218 28.033 43.8218Z" fill="#1A2E35" />
		<path d="M28.033 48.7891H11.5714C11.0528 48.7891 10.6333 49.2087 10.6333 49.7271C10.6333 50.2458 11.0529 50.6652 11.5714 50.6652H28.033C28.5516 50.6652 28.971 50.2456 28.971 49.7271C28.971 49.2087 28.5514 48.7891 28.033 48.7891Z" fill="#1A2E35" />
		<path d="M28.033 53.7568H11.5714C11.0528 53.7568 10.6333 54.1765 10.6333 54.6949C10.6333 55.2136 11.0529 55.633 11.5714 55.633H28.033C28.5516 55.633 28.971 55.2134 28.971 54.6949C28.971 54.1763 28.5514 53.7568 28.033 53.7568Z" fill="#1A2E35" />
	</symbol>
	<symbol id="icon-pause" viewBox="0 0 12 14">
		<path d="M10.5192 6.13622C11.1807 6.5221 11.1807 7.4779 10.5192 7.86378L1.50387 13.1227C0.837214 13.5116 3.84082e-07 13.0308 4.17818e-07 12.259L8.77571e-07 1.74104C9.11307e-07 0.969246 0.837215 0.488375 1.50387 0.877258L10.5192 6.13622Z" fill="white" />
	</symbol>
</svg>
